<mxfile host="app.diagrams.net" agent="Mozilla/5.0 (Windows NT 10.0; Win64; x64) AppleWebKit/537.36 (KHTML, like Gecko) Chrome/129.0.0.0 Safari/537.36" version="24.7.16">
  <diagram name="PÃ¡gina-1" id="2ujbmK1UwOq6LpVprHiX">
    <mxGraphModel dx="1434" dy="1949" grid="1" gridSize="10" guides="1" tooltips="1" connect="1" arrows="1" fold="1" page="1" pageScale="1" pageWidth="827" pageHeight="1169" math="0" shadow="0">
      <root>
        <mxCell id="0" />
        <mxCell id="1" parent="0" />
        <mxCell id="RUtqCk9LKaONZvRh7xtB-1" value="Jogo" style="rounded=0;whiteSpace=wrap;html=1;" vertex="1" parent="1">
          <mxGeometry x="150" y="20" width="120" height="60" as="geometry" />
        </mxCell>
        <mxCell id="RUtqCk9LKaONZvRh7xtB-2" value="Jogador" style="rounded=0;whiteSpace=wrap;html=1;" vertex="1" parent="1">
          <mxGeometry x="400" y="-350" width="120" height="60" as="geometry" />
        </mxCell>
        <mxCell id="RUtqCk9LKaONZvRh7xtB-3" value="EQUIPA" style="rounded=0;whiteSpace=wrap;html=1;" vertex="1" parent="1">
          <mxGeometry x="260" y="-710" width="120" height="60" as="geometry" />
        </mxCell>
        <mxCell id="RUtqCk9LKaONZvRh7xtB-14" value="" style="endArrow=none;html=1;rounded=0;exitX=1;exitY=0.5;exitDx=0;exitDy=0;entryX=0.37;entryY=1.05;entryDx=0;entryDy=0;entryPerimeter=0;" edge="1" parent="1" source="RUtqCk9LKaONZvRh7xtB-3" target="RUtqCk9LKaONZvRh7xtB-50">
          <mxGeometry relative="1" as="geometry">
            <mxPoint x="380" y="-680" as="sourcePoint" />
            <mxPoint x="419.96000000000004" y="-780" as="targetPoint" />
          </mxGeometry>
        </mxCell>
        <mxCell id="RUtqCk9LKaONZvRh7xtB-17" value="" style="endArrow=none;html=1;rounded=0;exitX=0.75;exitY=1;exitDx=0;exitDy=0;entryX=0.2;entryY=0;entryDx=0;entryDy=0;entryPerimeter=0;" edge="1" parent="1" source="RUtqCk9LKaONZvRh7xtB-3" target="RUtqCk9LKaONZvRh7xtB-47">
          <mxGeometry relative="1" as="geometry">
            <mxPoint x="330" y="-680" as="sourcePoint" />
            <mxPoint x="354" y="-610" as="targetPoint" />
          </mxGeometry>
        </mxCell>
        <mxCell id="RUtqCk9LKaONZvRh7xtB-19" value="" style="endArrow=none;html=1;rounded=0;entryX=0.75;entryY=0.95;entryDx=0;entryDy=0;entryPerimeter=0;exitX=0.325;exitY=0;exitDx=0;exitDy=0;exitPerimeter=0;" edge="1" parent="1" source="RUtqCk9LKaONZvRh7xtB-3" target="RUtqCk9LKaONZvRh7xtB-49">
          <mxGeometry relative="1" as="geometry">
            <mxPoint x="330" y="-680" as="sourcePoint" />
            <mxPoint x="235.03999999999996" y="-762" as="targetPoint" />
          </mxGeometry>
        </mxCell>
        <mxCell id="RUtqCk9LKaONZvRh7xtB-21" value="" style="endArrow=none;html=1;rounded=0;exitX=0;exitY=1;exitDx=0;exitDy=0;entryX=0.68;entryY=0.025;entryDx=0;entryDy=0;entryPerimeter=0;" edge="1" parent="1" source="RUtqCk9LKaONZvRh7xtB-3" target="RUtqCk9LKaONZvRh7xtB-48">
          <mxGeometry relative="1" as="geometry">
            <mxPoint x="330" y="-680" as="sourcePoint" />
            <mxPoint x="196.03999999999996" y="-638" as="targetPoint" />
          </mxGeometry>
        </mxCell>
        <mxCell id="RUtqCk9LKaONZvRh7xtB-23" value="" style="endArrow=none;html=1;rounded=0;exitX=1;exitY=0.5;exitDx=0;exitDy=0;entryX=0.24;entryY=0.05;entryDx=0;entryDy=0;entryPerimeter=0;" edge="1" parent="1" source="RUtqCk9LKaONZvRh7xtB-50" target="RUtqCk9LKaONZvRh7xtB-54">
          <mxGeometry relative="1" as="geometry">
            <mxPoint x="499.03999999999996" y="-806" as="sourcePoint" />
            <mxPoint x="575.04" y="-754.96" as="targetPoint" />
          </mxGeometry>
        </mxCell>
        <mxCell id="RUtqCk9LKaONZvRh7xtB-25" value="" style="endArrow=none;html=1;rounded=0;exitX=0.59;exitY=0.95;exitDx=0;exitDy=0;exitPerimeter=0;entryX=0.3;entryY=0;entryDx=0;entryDy=0;entryPerimeter=0;" edge="1" parent="1" source="RUtqCk9LKaONZvRh7xtB-51" target="RUtqCk9LKaONZvRh7xtB-50">
          <mxGeometry relative="1" as="geometry">
            <mxPoint x="382.03999999999996" y="-980" as="sourcePoint" />
            <mxPoint x="413.96000000000004" y="-858" as="targetPoint" />
          </mxGeometry>
        </mxCell>
        <mxCell id="RUtqCk9LKaONZvRh7xtB-27" value="" style="endArrow=none;html=1;rounded=0;exitX=0.5;exitY=1;exitDx=0;exitDy=0;entryX=0.8;entryY=0;entryDx=0;entryDy=0;entryPerimeter=0;" edge="1" parent="1" source="RUtqCk9LKaONZvRh7xtB-52" target="RUtqCk9LKaONZvRh7xtB-50">
          <mxGeometry relative="1" as="geometry">
            <mxPoint x="512.04" y="-934.96" as="sourcePoint" />
            <mxPoint x="491" y="-844" as="targetPoint" />
          </mxGeometry>
        </mxCell>
        <mxCell id="RUtqCk9LKaONZvRh7xtB-29" value="" style="endArrow=none;html=1;rounded=0;exitX=0.06;exitY=0.775;exitDx=0;exitDy=0;exitPerimeter=0;entryX=1;entryY=0.5;entryDx=0;entryDy=0;" edge="1" parent="1" source="RUtqCk9LKaONZvRh7xtB-53" target="RUtqCk9LKaONZvRh7xtB-50">
          <mxGeometry relative="1" as="geometry">
            <mxPoint x="650.96" y="-832" as="sourcePoint" />
            <mxPoint x="500" y="-820" as="targetPoint" />
          </mxGeometry>
        </mxCell>
        <mxCell id="RUtqCk9LKaONZvRh7xtB-36" value="" style="endArrow=none;html=1;rounded=0;exitX=0.317;exitY=1.017;exitDx=0;exitDy=0;exitPerimeter=0;entryX=0.7;entryY=0;entryDx=0;entryDy=0;entryPerimeter=0;" edge="1" parent="1" source="RUtqCk9LKaONZvRh7xtB-2" target="RUtqCk9LKaONZvRh7xtB-58">
          <mxGeometry relative="1" as="geometry">
            <mxPoint x="330" y="-180" as="sourcePoint" />
            <mxPoint x="425" y="-218.96000000000004" as="targetPoint" />
          </mxGeometry>
        </mxCell>
        <mxCell id="RUtqCk9LKaONZvRh7xtB-41" value="" style="endArrow=none;html=1;rounded=0;exitX=0.26;exitY=0.025;exitDx=0;exitDy=0;entryX=0.75;entryY=1;entryDx=0;entryDy=0;exitPerimeter=0;" edge="1" parent="1" source="RUtqCk9LKaONZvRh7xtB-59" target="RUtqCk9LKaONZvRh7xtB-2">
          <mxGeometry relative="1" as="geometry">
            <mxPoint x="577.5735931288073" y="-168.2842712474619" as="sourcePoint" />
            <mxPoint x="490" y="-180" as="targetPoint" />
          </mxGeometry>
        </mxCell>
        <mxCell id="RUtqCk9LKaONZvRh7xtB-42" value="" style="endArrow=none;html=1;rounded=0;exitX=0;exitY=0.5;exitDx=0;exitDy=0;entryX=1;entryY=0.5;entryDx=0;entryDy=0;" edge="1" parent="1" source="RUtqCk9LKaONZvRh7xtB-56" target="RUtqCk9LKaONZvRh7xtB-2">
          <mxGeometry relative="1" as="geometry">
            <mxPoint x="630" y="-310" as="sourcePoint" />
            <mxPoint x="490" y="-180" as="targetPoint" />
          </mxGeometry>
        </mxCell>
        <mxCell id="RUtqCk9LKaONZvRh7xtB-43" value="" style="endArrow=none;html=1;rounded=0;exitX=0.842;exitY=-0.017;exitDx=0;exitDy=0;exitPerimeter=0;entryX=0;entryY=1;entryDx=0;entryDy=0;" edge="1" parent="1" source="RUtqCk9LKaONZvRh7xtB-2" target="RUtqCk9LKaONZvRh7xtB-55">
          <mxGeometry relative="1" as="geometry">
            <mxPoint x="330" y="-180" as="sourcePoint" />
            <mxPoint x="587.5735931288073" y="-411.7157287525381" as="targetPoint" />
          </mxGeometry>
        </mxCell>
        <mxCell id="RUtqCk9LKaONZvRh7xtB-44" value="" style="endArrow=none;html=1;rounded=0;exitX=0.66;exitY=0.9;exitDx=0;exitDy=0;entryX=0.333;entryY=-0.05;entryDx=0;entryDy=0;entryPerimeter=0;exitPerimeter=0;" edge="1" parent="1" source="RUtqCk9LKaONZvRh7xtB-45" target="RUtqCk9LKaONZvRh7xtB-2">
          <mxGeometry relative="1" as="geometry">
            <mxPoint x="430" y="-410" as="sourcePoint" />
            <mxPoint x="490" y="-180" as="targetPoint" />
          </mxGeometry>
        </mxCell>
        <mxCell id="RUtqCk9LKaONZvRh7xtB-45" value="NumJogador" style="ellipse;whiteSpace=wrap;html=1;align=center;fontStyle=4;" vertex="1" parent="1">
          <mxGeometry x="370" y="-450" width="100" height="40" as="geometry" />
        </mxCell>
        <mxCell id="RUtqCk9LKaONZvRh7xtB-47" value="Ano Fundacao" style="ellipse;whiteSpace=wrap;html=1;align=center;strokeColor=default;verticalAlign=middle;fontFamily=Helvetica;fontSize=12;fontColor=default;fillColor=default;" vertex="1" parent="1">
          <mxGeometry x="360" y="-600" width="100" height="40" as="geometry" />
        </mxCell>
        <mxCell id="RUtqCk9LKaONZvRh7xtB-48" value="NumInterno" style="ellipse;whiteSpace=wrap;html=1;align=center;fontStyle=4;strokeColor=default;verticalAlign=middle;fontFamily=Helvetica;fontSize=12;fontColor=default;fillColor=default;" vertex="1" parent="1">
          <mxGeometry x="120" y="-624" width="100" height="40" as="geometry" />
        </mxCell>
        <mxCell id="RUtqCk9LKaONZvRh7xtB-49" value="Nome" style="ellipse;whiteSpace=wrap;html=1;align=center;strokeColor=default;verticalAlign=middle;fontFamily=Helvetica;fontSize=12;fontColor=default;fillColor=default;" vertex="1" parent="1">
          <mxGeometry x="170" y="-800" width="100" height="40" as="geometry" />
        </mxCell>
        <mxCell id="RUtqCk9LKaONZvRh7xtB-50" value="Morada" style="ellipse;whiteSpace=wrap;html=1;align=center;strokeColor=default;verticalAlign=middle;fontFamily=Helvetica;fontSize=12;fontColor=default;fillColor=default;" vertex="1" parent="1">
          <mxGeometry x="390" y="-840" width="100" height="40" as="geometry" />
        </mxCell>
        <mxCell id="RUtqCk9LKaONZvRh7xtB-51" value="Rua" style="ellipse;whiteSpace=wrap;html=1;align=center;strokeColor=default;verticalAlign=middle;fontFamily=Helvetica;fontSize=12;fontColor=default;fillColor=default;" vertex="1" parent="1">
          <mxGeometry x="330" y="-1020" width="100" height="40" as="geometry" />
        </mxCell>
        <mxCell id="RUtqCk9LKaONZvRh7xtB-52" value="Numporta" style="ellipse;whiteSpace=wrap;html=1;align=center;strokeColor=default;verticalAlign=middle;fontFamily=Helvetica;fontSize=12;fontColor=default;fillColor=default;" vertex="1" parent="1">
          <mxGeometry x="480" y="-1010" width="100" height="40" as="geometry" />
        </mxCell>
        <mxCell id="RUtqCk9LKaONZvRh7xtB-53" value="CodPostal" style="ellipse;whiteSpace=wrap;html=1;align=center;strokeColor=default;verticalAlign=middle;fontFamily=Helvetica;fontSize=12;fontColor=default;fillColor=default;" vertex="1" parent="1">
          <mxGeometry x="630" y="-860" width="100" height="40" as="geometry" />
        </mxCell>
        <mxCell id="RUtqCk9LKaONZvRh7xtB-54" value="Pais" style="ellipse;whiteSpace=wrap;html=1;align=center;strokeColor=default;verticalAlign=middle;fontFamily=Helvetica;fontSize=12;fontColor=default;fillColor=default;" vertex="1" parent="1">
          <mxGeometry x="560" y="-760" width="100" height="40" as="geometry" />
        </mxCell>
        <mxCell id="RUtqCk9LKaONZvRh7xtB-55" value="Nome" style="ellipse;whiteSpace=wrap;html=1;align=center;strokeColor=default;verticalAlign=middle;fontFamily=Helvetica;fontSize=12;fontColor=default;fillColor=default;" vertex="1" parent="1">
          <mxGeometry x="580" y="-450" width="100" height="40" as="geometry" />
        </mxCell>
        <mxCell id="RUtqCk9LKaONZvRh7xtB-56" value="Datanascimento" style="ellipse;whiteSpace=wrap;html=1;align=center;strokeColor=default;verticalAlign=middle;fontFamily=Helvetica;fontSize=12;fontColor=default;fillColor=default;" vertex="1" parent="1">
          <mxGeometry x="620" y="-340" width="100" height="40" as="geometry" />
        </mxCell>
        <mxCell id="RUtqCk9LKaONZvRh7xtB-58" value="posicao" style="ellipse;whiteSpace=wrap;html=1;align=center;strokeColor=default;verticalAlign=middle;fontFamily=Helvetica;fontSize=12;fontColor=default;fillColor=default;" vertex="1" parent="1">
          <mxGeometry x="340" y="-170" width="100" height="40" as="geometry" />
        </mxCell>
        <mxCell id="RUtqCk9LKaONZvRh7xtB-59" value="Genero" style="ellipse;whiteSpace=wrap;html=1;align=center;strokeColor=default;verticalAlign=middle;fontFamily=Helvetica;fontSize=12;fontColor=default;fillColor=default;" vertex="1" parent="1">
          <mxGeometry x="530" y="-220" width="100" height="40" as="geometry" />
        </mxCell>
        <mxCell id="RUtqCk9LKaONZvRh7xtB-62" value="Idade" style="ellipse;whiteSpace=wrap;html=1;align=center;dashed=1;strokeColor=default;verticalAlign=middle;fontFamily=Helvetica;fontSize=12;fontColor=default;fillColor=default;" vertex="1" parent="1">
          <mxGeometry x="550" y="-280" width="100" height="40" as="geometry" />
        </mxCell>
        <mxCell id="RUtqCk9LKaONZvRh7xtB-63" value="" style="endArrow=none;html=1;rounded=0;dashed=1;dashPattern=1 2;fontFamily=Helvetica;fontSize=12;fontColor=default;exitX=1;exitY=1;exitDx=0;exitDy=0;" edge="1" parent="1" source="RUtqCk9LKaONZvRh7xtB-2" target="RUtqCk9LKaONZvRh7xtB-62">
          <mxGeometry relative="1" as="geometry">
            <mxPoint x="330" y="-380" as="sourcePoint" />
            <mxPoint x="490" y="-380" as="targetPoint" />
          </mxGeometry>
        </mxCell>
        <mxCell id="RUtqCk9LKaONZvRh7xtB-66" value="" style="endArrow=none;html=1;rounded=0;fontFamily=Helvetica;fontSize=12;fontColor=default;exitX=1.017;exitY=0.65;exitDx=0;exitDy=0;exitPerimeter=0;" edge="1" parent="1" source="RUtqCk9LKaONZvRh7xtB-1" target="RUtqCk9LKaONZvRh7xtB-67">
          <mxGeometry relative="1" as="geometry">
            <mxPoint x="330" y="120" as="sourcePoint" />
            <mxPoint x="490" y="120" as="targetPoint" />
          </mxGeometry>
        </mxCell>
        <mxCell id="RUtqCk9LKaONZvRh7xtB-67" value="Visitante" style="ellipse;whiteSpace=wrap;html=1;align=center;strokeColor=default;verticalAlign=middle;fontFamily=Helvetica;fontSize=12;fontColor=default;fillColor=default;" vertex="1" parent="1">
          <mxGeometry x="340" y="60" width="100" height="40" as="geometry" />
        </mxCell>
        <mxCell id="RUtqCk9LKaONZvRh7xtB-68" value="" style="endArrow=none;html=1;rounded=0;fontFamily=Helvetica;fontSize=12;fontColor=default;exitX=0.858;exitY=1.05;exitDx=0;exitDy=0;exitPerimeter=0;" edge="1" parent="1" source="RUtqCk9LKaONZvRh7xtB-1" target="RUtqCk9LKaONZvRh7xtB-69">
          <mxGeometry relative="1" as="geometry">
            <mxPoint x="330" y="120" as="sourcePoint" />
            <mxPoint x="320" y="150" as="targetPoint" />
          </mxGeometry>
        </mxCell>
        <mxCell id="RUtqCk9LKaONZvRh7xtB-69" value="Visitado" style="ellipse;whiteSpace=wrap;html=1;align=center;strokeColor=default;verticalAlign=middle;fontFamily=Helvetica;fontSize=12;fontColor=default;fillColor=default;" vertex="1" parent="1">
          <mxGeometry x="270" y="130" width="100" height="40" as="geometry" />
        </mxCell>
        <mxCell id="RUtqCk9LKaONZvRh7xtB-70" value="" style="endArrow=none;html=1;rounded=0;fontFamily=Helvetica;fontSize=12;fontColor=default;exitX=0.5;exitY=1;exitDx=0;exitDy=0;" edge="1" parent="1" source="RUtqCk9LKaONZvRh7xtB-1" target="RUtqCk9LKaONZvRh7xtB-72">
          <mxGeometry relative="1" as="geometry">
            <mxPoint x="330" y="120" as="sourcePoint" />
            <mxPoint x="230" y="180" as="targetPoint" />
          </mxGeometry>
        </mxCell>
        <mxCell id="RUtqCk9LKaONZvRh7xtB-72" value="Local" style="ellipse;whiteSpace=wrap;html=1;align=center;strokeColor=default;verticalAlign=middle;fontFamily=Helvetica;fontSize=12;fontColor=default;fillColor=default;" vertex="1" parent="1">
          <mxGeometry x="180" y="160" width="100" height="40" as="geometry" />
        </mxCell>
        <mxCell id="RUtqCk9LKaONZvRh7xtB-73" value="" style="endArrow=none;html=1;rounded=0;fontFamily=Helvetica;fontSize=12;fontColor=default;exitX=0;exitY=1;exitDx=0;exitDy=0;" edge="1" parent="1" source="RUtqCk9LKaONZvRh7xtB-1" target="RUtqCk9LKaONZvRh7xtB-74">
          <mxGeometry relative="1" as="geometry">
            <mxPoint x="330" y="120" as="sourcePoint" />
            <mxPoint x="100" y="140" as="targetPoint" />
          </mxGeometry>
        </mxCell>
        <mxCell id="RUtqCk9LKaONZvRh7xtB-74" value="Numjogo" style="ellipse;whiteSpace=wrap;html=1;align=center;fontStyle=4;strokeColor=default;verticalAlign=middle;fontFamily=Helvetica;fontSize=12;fontColor=default;fillColor=default;" vertex="1" parent="1">
          <mxGeometry x="20" y="90" width="100" height="40" as="geometry" />
        </mxCell>
        <mxCell id="RUtqCk9LKaONZvRh7xtB-75" value="" style="endArrow=none;html=1;rounded=0;fontFamily=Helvetica;fontSize=12;fontColor=default;exitX=0.25;exitY=1;exitDx=0;exitDy=0;" edge="1" parent="1" source="RUtqCk9LKaONZvRh7xtB-1" target="RUtqCk9LKaONZvRh7xtB-76">
          <mxGeometry relative="1" as="geometry">
            <mxPoint x="330" y="120" as="sourcePoint" />
            <mxPoint x="110" y="160" as="targetPoint" />
          </mxGeometry>
        </mxCell>
        <mxCell id="RUtqCk9LKaONZvRh7xtB-76" value="Data" style="ellipse;whiteSpace=wrap;html=1;align=center;strokeColor=default;verticalAlign=middle;fontFamily=Helvetica;fontSize=12;fontColor=default;fillColor=default;" vertex="1" parent="1">
          <mxGeometry x="60" y="140" width="100" height="40" as="geometry" />
        </mxCell>
        <mxCell id="RUtqCk9LKaONZvRh7xtB-77" value="Resultado?" style="ellipse;whiteSpace=wrap;html=1;align=center;strokeColor=default;verticalAlign=middle;fontFamily=Helvetica;fontSize=12;fontColor=default;fillColor=default;" vertex="1" parent="1">
          <mxGeometry x="350" y="-30" width="100" height="40" as="geometry" />
        </mxCell>
        <mxCell id="RUtqCk9LKaONZvRh7xtB-78" value="" style="endArrow=none;html=1;rounded=0;fontFamily=Helvetica;fontSize=12;fontColor=default;exitX=1.025;exitY=0.15;exitDx=0;exitDy=0;exitPerimeter=0;entryX=0.35;entryY=0.975;entryDx=0;entryDy=0;entryPerimeter=0;" edge="1" parent="1" source="RUtqCk9LKaONZvRh7xtB-1" target="RUtqCk9LKaONZvRh7xtB-77">
          <mxGeometry relative="1" as="geometry">
            <mxPoint x="330" y="120" as="sourcePoint" />
            <mxPoint x="490" y="120" as="targetPoint" />
          </mxGeometry>
        </mxCell>
        <mxCell id="RUtqCk9LKaONZvRh7xtB-80" value="JOGOU&lt;span style=&quot;white-space: pre;&quot;&gt;&#x9;&lt;/span&gt;" style="shape=rhombus;perimeter=rhombusPerimeter;whiteSpace=wrap;html=1;align=center;strokeColor=default;verticalAlign=middle;fontFamily=Helvetica;fontSize=12;fontColor=default;fillColor=default;" vertex="1" parent="1">
          <mxGeometry x="360" y="470" width="120" height="60" as="geometry" />
        </mxCell>
        <mxCell id="RUtqCk9LKaONZvRh7xtB-81" value="JOGO" style="whiteSpace=wrap;html=1;align=center;strokeColor=default;verticalAlign=middle;fontFamily=Helvetica;fontSize=12;fontColor=default;fillColor=default;" vertex="1" parent="1">
          <mxGeometry x="550" y="480" width="100" height="40" as="geometry" />
        </mxCell>
        <mxCell id="RUtqCk9LKaONZvRh7xtB-82" value="EQUIPA" style="whiteSpace=wrap;html=1;align=center;strokeColor=default;verticalAlign=middle;fontFamily=Helvetica;fontSize=12;fontColor=default;fillColor=default;" vertex="1" parent="1">
          <mxGeometry x="130" y="490" width="100" height="40" as="geometry" />
        </mxCell>
        <mxCell id="RUtqCk9LKaONZvRh7xtB-96" value="" style="endArrow=none;html=1;rounded=0;fontFamily=Helvetica;fontSize=12;fontColor=default;exitX=1;exitY=0.5;exitDx=0;exitDy=0;entryX=0;entryY=0.5;entryDx=0;entryDy=0;" edge="1" parent="1" source="RUtqCk9LKaONZvRh7xtB-82" target="RUtqCk9LKaONZvRh7xtB-80">
          <mxGeometry relative="1" as="geometry">
            <mxPoint x="330" y="520" as="sourcePoint" />
            <mxPoint x="490" y="520" as="targetPoint" />
          </mxGeometry>
        </mxCell>
        <mxCell id="RUtqCk9LKaONZvRh7xtB-97" value="M" style="resizable=0;html=1;whiteSpace=wrap;align=left;verticalAlign=bottom;strokeColor=default;fontFamily=Helvetica;fontSize=12;fontColor=default;fillColor=default;" connectable="0" vertex="1" parent="RUtqCk9LKaONZvRh7xtB-96">
          <mxGeometry x="-1" relative="1" as="geometry" />
        </mxCell>
        <mxCell id="RUtqCk9LKaONZvRh7xtB-99" value="" style="endArrow=none;html=1;rounded=0;fontFamily=Helvetica;fontSize=12;fontColor=default;entryX=0;entryY=0.75;entryDx=0;entryDy=0;exitX=0.954;exitY=0.5;exitDx=0;exitDy=0;exitPerimeter=0;" edge="1" parent="1" source="RUtqCk9LKaONZvRh7xtB-80" target="RUtqCk9LKaONZvRh7xtB-81">
          <mxGeometry relative="1" as="geometry">
            <mxPoint x="470" y="520" as="sourcePoint" />
            <mxPoint x="490" y="520" as="targetPoint" />
          </mxGeometry>
        </mxCell>
        <mxCell id="RUtqCk9LKaONZvRh7xtB-100" value="N" style="resizable=0;html=1;whiteSpace=wrap;align=right;verticalAlign=bottom;strokeColor=default;fontFamily=Helvetica;fontSize=12;fontColor=default;fillColor=default;" connectable="0" vertex="1" parent="RUtqCk9LKaONZvRh7xtB-99">
          <mxGeometry x="1" relative="1" as="geometry" />
        </mxCell>
        <mxCell id="RUtqCk9LKaONZvRh7xtB-101" value="FILIADO_A" style="strokeWidth=2;html=1;shape=mxgraph.flowchart.decision;whiteSpace=wrap;strokeColor=default;align=center;verticalAlign=middle;fontFamily=Helvetica;fontSize=12;fontColor=default;fillColor=default;" vertex="1" parent="1">
          <mxGeometry x="280" y="630" width="100" height="100" as="geometry" />
        </mxCell>
        <mxCell id="RUtqCk9LKaONZvRh7xtB-102" value="" style="shape=link;html=1;rounded=0;fontFamily=Helvetica;fontSize=12;fontColor=default;exitX=0.12;exitY=0.43;exitDx=0;exitDy=0;exitPerimeter=0;entryX=0.5;entryY=1;entryDx=0;entryDy=0;" edge="1" parent="1" source="RUtqCk9LKaONZvRh7xtB-101" target="RUtqCk9LKaONZvRh7xtB-82">
          <mxGeometry relative="1" as="geometry">
            <mxPoint x="330" y="520" as="sourcePoint" />
            <mxPoint x="490" y="520" as="targetPoint" />
          </mxGeometry>
        </mxCell>
        <mxCell id="RUtqCk9LKaONZvRh7xtB-103" value="1" style="resizable=0;html=1;whiteSpace=wrap;align=right;verticalAlign=bottom;strokeColor=default;fontFamily=Helvetica;fontSize=12;fontColor=default;fillColor=default;" connectable="0" vertex="1" parent="RUtqCk9LKaONZvRh7xtB-102">
          <mxGeometry x="1" relative="1" as="geometry" />
        </mxCell>
        <mxCell id="RUtqCk9LKaONZvRh7xtB-104" value="anocorrente" style="ellipse;whiteSpace=wrap;html=1;align=center;strokeColor=default;verticalAlign=middle;fontFamily=Helvetica;fontSize=12;fontColor=default;fillColor=default;" vertex="1" parent="1">
          <mxGeometry x="100" y="710" width="100" height="40" as="geometry" />
        </mxCell>
        <mxCell id="RUtqCk9LKaONZvRh7xtB-105" value="" style="endArrow=none;html=1;rounded=0;fontFamily=Helvetica;fontSize=12;fontColor=default;exitX=1;exitY=0.5;exitDx=0;exitDy=0;entryX=0.2;entryY=0.73;entryDx=0;entryDy=0;entryPerimeter=0;" edge="1" parent="1" source="RUtqCk9LKaONZvRh7xtB-104" target="RUtqCk9LKaONZvRh7xtB-101">
          <mxGeometry relative="1" as="geometry">
            <mxPoint x="330" y="520" as="sourcePoint" />
            <mxPoint x="490" y="520" as="targetPoint" />
          </mxGeometry>
        </mxCell>
        <mxCell id="RUtqCk9LKaONZvRh7xtB-106" value="Escalao" style="ellipse;whiteSpace=wrap;html=1;align=center;strokeColor=default;verticalAlign=middle;fontFamily=Helvetica;fontSize=12;fontColor=default;fillColor=default;" vertex="1" parent="1">
          <mxGeometry x="450" y="720" width="100" height="40" as="geometry" />
        </mxCell>
        <mxCell id="RUtqCk9LKaONZvRh7xtB-107" value="" style="endArrow=none;html=1;rounded=0;fontFamily=Helvetica;fontSize=12;fontColor=default;exitX=0.72;exitY=0.77;exitDx=0;exitDy=0;exitPerimeter=0;entryX=0.01;entryY=0.325;entryDx=0;entryDy=0;entryPerimeter=0;" edge="1" parent="1" source="RUtqCk9LKaONZvRh7xtB-101" target="RUtqCk9LKaONZvRh7xtB-106">
          <mxGeometry relative="1" as="geometry">
            <mxPoint x="330" y="520" as="sourcePoint" />
            <mxPoint x="490" y="520" as="targetPoint" />
          </mxGeometry>
        </mxCell>
        <mxCell id="RUtqCk9LKaONZvRh7xtB-108" value="" style="endArrow=none;html=1;rounded=0;fontFamily=Helvetica;fontSize=12;fontColor=default;exitX=0.75;exitY=0.25;exitDx=0;exitDy=0;exitPerimeter=0;" edge="1" parent="1" source="RUtqCk9LKaONZvRh7xtB-101" target="RUtqCk9LKaONZvRh7xtB-110">
          <mxGeometry relative="1" as="geometry">
            <mxPoint x="330" y="520" as="sourcePoint" />
            <mxPoint x="460" y="620" as="targetPoint" />
          </mxGeometry>
        </mxCell>
        <mxCell id="RUtqCk9LKaONZvRh7xtB-109" value="N" style="resizable=0;html=1;whiteSpace=wrap;align=right;verticalAlign=bottom;strokeColor=default;fontFamily=Helvetica;fontSize=12;fontColor=default;fillColor=default;" connectable="0" vertex="1" parent="RUtqCk9LKaONZvRh7xtB-108">
          <mxGeometry x="1" relative="1" as="geometry" />
        </mxCell>
        <mxCell id="RUtqCk9LKaONZvRh7xtB-110" value="Jogador" style="whiteSpace=wrap;html=1;align=center;strokeColor=default;verticalAlign=middle;fontFamily=Helvetica;fontSize=12;fontColor=default;fillColor=default;" vertex="1" parent="1">
          <mxGeometry x="430" y="610" width="100" height="40" as="geometry" />
        </mxCell>
      </root>
    </mxGraphModel>
  </diagram>
</mxfile>
